<svg preserveAspectRatio="xMidYMid meet" viewBox="73.14 79.79503105590062 153 43.830227743271216" xmlns="http://www.w3.org/2000/svg" version="1.0" style="max-height: 500px" width="153" height="43.830227743271216">
<metadata>
Created by potrace 1.10, written by Peter Selinger 2001-2011
</metadata>
<g stroke="none" fill="#000000" transform="translate(0.000000,145.000000) scale(0.100000,-0.100000)">
<path d="M1449 1162 c-21 -22 -39 -44 -39 -50 0 -7 -13 -12 -29 -12 -71 0&#10;-101 -79 -61 -163 28 -60 37 -56 10 5 -15 35 -18 55 -12 89 7 40 11 45 45 53&#10;20 5 40 6 44 3 3 -4 6 -29 4 -55 -1 -33 6 -62 23 -97 27 -56 27 -57 -48 -79&#10;-40 -12 -44 -12 -39 3 5 13 3 14 -8 4 -7 -7 -19 -13 -27 -13 -7 0 -36 -10 -63&#10;-22 -51 -21 -51 -38 -1 -38 26 0 30 -25 5 -39 -10 -6 -13 -11 -8 -11 6 0 16 5&#10;22 11 8 8 14 6 22 -9 13 -24 62 -45 93 -39 18 3 17 5 -8 6 -35 1 -84 35 -84&#10;57 0 28 47 62 117 84 l70 23 -29 59 c-26 53 -28 65 -22 121 8 78 24 110 66&#10;130 21 11 27 17 15 17 -10 0 -36 -17 -58 -38z m-141 -347 c-16 -16 -32 -23&#10;-42 -19 -23 9 -20 19 12 31 47 19 56 15 30 -12z"/>
<path d="M1625 1184 c17 -8 38 -25 47 -37 10 -12 18 -17 18 -10 0 16 -58 63&#10;-78 63 -10 0 -5 -6 13 -16z"/>
<path d="M1495 1138 c-19 -17 -28 -38 -34 -78 -8 -50 -6 -60 22 -118 37 -77&#10;46 -76 12 2 -57 130 -8 229 100 202 57 -15 73 -122 29 -207 -14 -28 -23 -53&#10;-21 -56 3 -2 18 24 35 59 27 57 29 68 21 118 -10 69 -42 100 -99 100 -26 0&#10;-47 -7 -65 -22z"/>
<path d="M1256 1024 c-4 -31 -1 -57 10 -82 14 -35 14 -38 -7 -54 -11 -10 -27&#10;-18 -34 -18 -23 0 -65 -41 -65 -64 0 -29 33 -59 57 -53 16 4 15 5 -2 6 -47 2&#10;-61 58 -22 84 13 8 42 21 65 28 23 7 42 13 42 15 0 1 -9 23 -20 48 -14 34 -18&#10;58 -13 91 3 25 3 45 1 45 -3 0 -8 -21 -12 -46z"/>
<path d="M1702 1030 c-2 -25 -15 -70 -30 -101 l-27 -57 69 -22 c38 -12 80 -33&#10;93 -46 12 -13 23 -19 23 -14 0 16 -48 47 -109 69 -51 19 -59 25 -51 39 30 56&#10;41 94 37 133 l-4 44 -1 -45z"/>
<path d="M1395 807 c-58 -23 -71 -34 -57 -49 9 -9 61 -14 190 -16 233 -4 311&#10;13 230 51 -60 27 -84 28 -33 1 l50 -27 -34 -9 c-19 -5 -107 -8 -197 -6 -185 3&#10;-215 13 -143 46 48 22 43 28 -6 9z"/>
<path d="M1820 742 c0 -23 -66 -35 -230 -42 l-175 -8 175 2 c142 2 181 6 208&#10;19 27 15 44 37 27 37 -3 0 -5 -4 -5 -8z"/>
<path d="M1075 610 c-13 -14 -31 -20 -61 -20 -34 0 -51 -7 -77 -29 l-33 -30&#10;-26 30 c-20 21 -35 29 -61 29 -60 0 -66 -17 -68 -180 -1 -137 0 -145 21 -162&#10;41 -33 93 -20 119 30 l12 23 39 -35 38 -35 95 2 c54 1 100 7 108 14 11 9 20 8&#10;39 -2 14 -8 37 -14 51 -15 26 0 69 36 69 58 0 7 5 12 10 12 6 0 10 -4 10 -10&#10;0 -5 17 -21 38 -34 32 -21 49 -24 121 -24 75 1 87 3 108 24 13 13 23 30 23 38&#10;0 11 8 8 28 -11 63 -60 160 -72 241 -30 l47 25 28 -21 c39 -28 122 -35 164&#10;-13 74 38 105 110 78 181 -9 23 -27 51 -39 62 -48 44 -131 52 -197 18 -25 -13&#10;-27 -12 -37 15 -34 91 -200 101 -283 17 l-40 -39 6 44 c6 40 4 47 -21 66 -35&#10;27 -69 28 -102 2 -16 -12 -41 -20 -64 -20 -29 0 -47 -8 -74 -31 l-35 -31 -27&#10;32 c-24 30 -30 32 -72 27 -39 -4 -49 -2 -68 19 -28 31 -82 33 -108 4z m99 -32&#10;c15 -25 -4 -52 -38 -56 -47 -6 -74 36 -44 66 18 18 69 11 82 -10z m446 2 c17&#10;-32 -4 -60 -46 -60 -27 0 -37 5 -43 23 -13 34 4 57 44 57 24 0 37 -6 45 -20z&#10;m245 -21 c22 -6 50 -20 62 -31 l22 -20 -27 -23 c-24 -20 -29 -21 -47 -9 -34&#10;24 -91 18 -114 -12 -44 -56 -11 -134 56 -134 20 0 44 7 54 16 17 15 20 15 49&#10;-9 l30 -26 -27 -21 c-35 -27 -63 -33 -130 -28 -50 4 -60 9 -95 46 -35 38 -38&#10;46 -38 99 0 83 39 136 114 154 44 10 47 10 91 -2z m-1005 -61 l1 -63 57 63&#10;c55 61 58 62 107 62 l49 0 -63 -64 c-44 -44 -61 -68 -55 -77 4 -8 32 -44 61&#10;-81 29 -37 53 -69 53 -72 0 -4 -21 -6 -47 -6 -46 1 -50 3 -88 54 -37 50 -41&#10;53 -57 38 -11 -9 -18 -30 -18 -54 0 -38 0 -38 -39 -38 l-40 0 -3 150 -3 150&#10;43 0 42 0 0 -62z m448 2 c-1 -33 -2 -60 0 -60 1 0 28 27 60 61 55 58 59 60&#10;100 57 l43 -3 -59 -65 -59 -65 57 -70 c80 -99 79 -95 22 -95 -49 0 -51 1 -92&#10;57 -40 52 -44 55 -56 38 -8 -11 -14 -36 -14 -57 l0 -38 -45 0 -45 0 0 150 0&#10;150 46 0 46 0 -4 -60z m-250 -52 c1 -29 -1 -61 -4 -71 -6 -18 -7 -18 -26 0&#10;-39 35 -40 50 -7 88 17 19 32 35 33 35 1 0 3 -24 4 -52z m1110 26 c12 -8 30&#10;-30 39 -48 36 -77 -24 -166 -113 -166 -83 0 -134 44 -134 116 0 98 120 155&#10;208 98z m-998 -99 l0 -115 -40 0 -40 0 0 115 0 115 40 0 40 0 0 -115z m330 50&#10;c0 -72 -12 -78 -44 -24 -18 31 -18 31 10 60 15 16 29 29 31 29 2 0 3 -29 3&#10;-65z m120 -50 l0 -115 -45 0 -45 0 0 115 0 115 45 0 45 0 0 -115z m275 72 c11&#10;0 27 3 36 7 15 6 15 3 6 -33 -9 -32 -16 -41 -33 -41 -11 0 -35 -5 -52 -11 -42&#10;-14 -72 2 -72 39 0 41 18 55 60 47 19 -4 44 -8 55 -8z"/>
<path d="M2052 418 c-18 -18 -14 -63 7 -82 42 -39 98 21 66 70 -17 26 -53 32&#10;-73 12z"/>
</g>
</svg>