<?xml version="1.0" standalone="no"?>
<!DOCTYPE svg PUBLIC "-//W3C//DTD SVG 20010904//EN"
 "http://www.w3.org/TR/2001/REC-SVG-20010904/DTD/svg10.dtd">
<svg version="1.0" xmlns="http://www.w3.org/2000/svg"
 width="300.000000pt" height="85.000000pt" viewBox="0 0 300.000000 85.000000"
 preserveAspectRatio="xMidYMid meet">
<metadata>
Created by potrace 1.10, written by Peter Selinger 2001-2011
</metadata>
<g transform="translate(0.000000,85.000000) scale(0.100000,-0.100000)"
fill="#000000" stroke="none">
<path d="M795 761 c-89 -23 -180 -100 -226 -188 -19 -39 -25 -67 -27 -144 -5
-120 17 -178 88 -242 113 -102 343 -115 445 -26 20 18 35 40 35 53 0 21 -49
108 -67 119 -4 3 -33 -1 -63 -9 -97 -25 -172 0 -200 65 -27 66 13 136 83 148
28 4 48 -1 87 -21 41 -21 55 -25 66 -15 8 6 14 17 14 23 0 6 14 38 30 70 17
32 30 65 30 72 0 14 -63 65 -103 82 -36 15 -153 24 -192 13z m180 -55 c72 -33
79 -44 55 -91 -11 -22 -20 -45 -20 -52 0 -22 -24 -25 -56 -8 -35 18 -113 20
-149 3 -39 -18 -69 -74 -69 -130 0 -54 21 -89 75 -126 34 -24 70 -25 199 -10
21 2 29 -5 47 -41 27 -53 23 -60 -49 -91 -138 -59 -357 3 -414 116 -15 30 -19
60 -19 134 0 84 3 101 28 147 62 119 142 173 257 173 47 0 79 -7 115 -24z"/>
<path d="M1340 761 c-89 -29 -169 -106 -218 -208 -28 -60 -34 -83 -34 -140 0
-184 120 -309 307 -321 90 -5 164 21 233 83 70 63 96 126 96 235 1 75 -3 93
-30 150 -64 133 -150 200 -262 206 -37 2 -78 0 -92 -5z m165 -55 c61 -28 127
-91 156 -148 30 -59 37 -166 15 -242 -45 -155 -220 -229 -389 -166 -188 71
-222 316 -66 485 86 93 184 118 284 71z"/>
<path d="M1312 536 c-35 -33 -37 -37 -37 -98 1 -104 50 -159 143 -161 42 0 49
3 84 43 21 23 43 59 49 80 23 78 -60 170 -153 170 -41 0 -54 -5 -86 -34z m145
-16 c18 -10 39 -34 49 -51 31 -62 -16 -144 -89 -156 -32 -5 -41 -1 -72 30 -30
30 -35 42 -35 82 0 56 11 80 48 99 37 20 61 20 99 -4z"/>
<path d="M162 749 c-42 -13 -87 -75 -103 -144 -21 -96 5 -153 100 -217 56 -37
101 -78 101 -91 0 -14 -82 -2 -121 17 -38 19 -39 18 -67 -53 -29 -71 -28 -86
11 -115 65 -49 216 -71 310 -45 91 25 138 105 117 202 -16 80 -40 111 -118
152 -79 41 -107 67 -98 90 9 24 32 28 67 11 18 -9 38 -16 44 -16 17 0 95 86
95 105 0 25 -73 90 -116 103 -48 14 -174 15 -222 1z m207 -29 c36 -10 91 -56
91 -75 0 -6 -13 -26 -28 -44 -28 -34 -28 -34 -59 -17 -41 20 -72 20 -95 -1
-43 -39 2 -112 98 -159 63 -31 90 -60 104 -115 31 -114 -41 -183 -190 -181
-76 0 -176 28 -199 55 -13 16 7 87 26 94 7 3 31 -2 53 -11 62 -25 108 -21 122
9 16 35 -8 66 -108 135 -64 46 -81 63 -92 95 -23 71 18 178 81 209 36 18 143
21 196 6z"/>
<path d="M1788 740 c-15 -9 -17 -37 -13 -311 2 -194 7 -305 14 -312 16 -16
111 -21 159 -8 l42 12 0 90 c0 109 8 108 61 -6 21 -46 43 -86 49 -90 17 -10
157 6 177 20 16 12 16 16 -1 71 -10 33 -31 89 -48 125 l-29 66 32 51 c28 46
31 57 27 111 -5 72 -38 121 -109 161 -41 23 -55 25 -194 28 -91 1 -157 -2
-167 -8z m344 -53 c45 -22 61 -36 77 -71 34 -69 22 -145 -28 -190 -11 -11 -21
-25 -21 -32 0 -7 18 -44 41 -83 23 -39 43 -89 46 -111 5 -38 5 -39 -30 -45
-64 -12 -99 -11 -107 5 -5 8 -23 47 -41 87 -34 78 -69 119 -93 110 -13 -5 -16
-26 -16 -111 l0 -104 -37 -4 c-21 -3 -54 -3 -74 0 l-36 4 -7 281 c-6 226 -5
282 6 289 7 5 69 7 138 6 113 -3 130 -6 182 -31z"/>
<path d="M1953 595 c-5 -8 -6 -40 -3 -72 l5 -58 40 2 c29 2 46 10 63 28 29 34
28 60 -4 90 -30 28 -88 34 -101 10z m87 -40 c17 -21 7 -41 -29 -53 l-31 -11 0
40 c0 34 3 39 24 39 13 0 29 -7 36 -15z"/>
<path d="M2368 738 c-13 -11 -17 -50 -24 -208 -13 -291 -10 -401 13 -418 14
-11 53 -12 198 -7 99 4 188 12 198 17 13 7 17 21 17 63 0 29 -4 65 -10 79 -9
25 -12 25 -112 28 -96 3 -103 4 -106 24 -3 21 2 22 97 26 56 2 105 8 110 13 6
6 13 36 17 67 9 80 1 88 -98 88 -83 0 -118 11 -118 35 0 12 19 15 98 15 127 0
130 3 124 101 l-4 76 -91 7 c-149 10 -291 7 -309 -6z m341 -24 c32 -7 32 -7
29 -63 l-3 -56 -100 -3 c-64 -2 -102 -7 -107 -15 -14 -22 -9 -84 8 -91 9 -3
50 -6 93 -6 94 0 110 -10 104 -62 l-5 -38 -57 -2 c-31 -1 -76 -3 -101 -4 -41
-1 -45 -3 -54 -32 -5 -17 -6 -42 -2 -56 6 -24 11 -26 69 -28 34 -1 81 -1 103
0 36 2 42 0 48 -20 6 -23 8 -86 4 -90 -2 0 -83 -4 -180 -7 l-177 -6 -7 55 c-4
30 -4 143 0 250 5 107 7 212 7 232 -1 27 3 38 16 41 28 7 277 8 312 1z"/>
</g>
</svg>
